<?xml version="1.0" standalone="no"?>
<!DOCTYPE svg PUBLIC "-//W3C//DTD SVG 20010904//EN"
 "http://www.w3.org/TR/2001/REC-SVG-20010904/DTD/svg10.dtd">
<svg version="1.0" xmlns="http://www.w3.org/2000/svg"
 width="200.000000pt" height="200.000000pt" viewBox="0 0 200.000000 200.000000"
 preserveAspectRatio="xMidYMid meet">
<metadata>
Created by potrace 1.11, written by Peter Selinger 2001-2013
</metadata>
<g transform="translate(0.000000,200.000000) scale(0.100000,-0.100000)"
fill="#000000" stroke="none">
<path d="M1203 1659 l-222 -151 -216 147 c-128 87 -220 143 -224 137 -3 -6 -5
-46 -4 -89 1 -43 3 -139 3 -213 l2 -135 49 -34 c27 -18 49 -36 49 -40 0 -8
-67 -51 -80 -51 -7 0 -10 -76 -10 -224 l1 -224 55 -36 c30 -20 54 -38 54 -40
0 -2 -22 -18 -49 -35 -27 -18 -51 -37 -54 -44 -2 -7 -5 -111 -6 -231 -2 -219
-2 -219 18 -205 12 8 113 76 225 152 l205 139 86 -59 c47 -32 103 -69 124 -83
22 -14 80 -53 130 -87 l91 -62 0 227 0 227 -45 28 c-25 16 -45 32 -45 35 0 4
20 19 45 34 l45 28 1 172 c2 295 2 278 -10 278 -10 0 -101 59 -101 65 0 1 27
20 60 41 l60 39 1 95 c0 52 1 152 2 223 2 81 -1 127 -8 126 -5 0 -110 -68
-232 -150z m-155 -691 c-18 -16 -38 -28 -45 -28 -7 0 -33 13 -59 29 l-46 30
41 29 41 30 50 -31 50 -32 -32 -27z"/>
<path d="M160 1197 c-50 -25 -60 -66 -60 -244 l0 -163 85 0 c81 0 85 1 86 23
1 27 1 331 0 370 -1 25 -4 27 -43 27 -24 0 -54 -6 -68 -13z"/>
<path d="M330 1001 l0 -211 85 0 c61 0 85 4 86 13 4 60 1 290 -5 318 -10 54
-45 81 -111 87 l-55 4 0 -211z"/>
<path d="M1509 1205 c-7 -1 -2 -398 4 -402 16 -10 138 -8 146 2 4 5 8 98 7
205 l-1 195 -77 0 c-43 0 -79 1 -79 0z"/>
<path d="M1719 1196 c-3 -32 -4 -383 -1 -392 4 -15 77 -7 120 13 63 30 81 109
37 161 -21 26 -23 31 -10 42 43 36 20 136 -38 163 -43 20 -107 28 -108 13z"/>
</g>
</svg>
